<svg width="100" height="45" viewBox="0 0 100 45" xmlns="http://www.w3.org/2000/svg"><title>langAI-marca</title><g fill="#3E4EB8" fill-rule="evenodd"><path d="M19.635 14.653a2.28 2.28 0 1 1 0 4.562 2.28 2.28 0 0 1 0-4.562zM19.635 9.47a1.916 1.916 0 1 1 0 3.833 1.916 1.916 0 0 1 0-3.832M10.073 15.055a1.916 1.916 0 1 1 0 3.832 1.916 1.916 0 0 1 0-3.832M10.073 26.113a1.916 1.916 0 1 1 0 3.832 1.916 1.916 0 0 1 0-3.832M19.635 31.697a1.916 1.916 0 1 1 0 3.832 1.916 1.916 0 0 1 0-3.832M29.215 26.113a1.916 1.916 0 1 1 0 3.832 1.916 1.916 0 0 1 0-3.832M29.215 15.055a1.916 1.916 0 1 1 0 3.832 1.916 1.916 0 0 1 0-3.832M29.617 9.745a1.515 1.515 0 1 1 0 3.029 1.515 1.515 0 0 1 0-3.03M29.617 32.208a1.515 1.515 0 1 1 0 3.03 1.515 1.515 0 0 1 0-3.03M9.672 9.745a1.515 1.515 0 1 1 0 3.029 1.515 1.515 0 0 1 0-3.03M9.69 32.208a1.515 1.515 0 1 1 0 3.03 1.515 1.515 0 0 1 0-3.03M34.307 17.956a1.515 1.515 0 1 1 0 3.03 1.515 1.515 0 0 1 0-3.03M4.964 17.956a1.515 1.515 0 1 1 0 3.03 1.515 1.515 0 0 1 0-3.03M4.964 23.996a1.515 1.515 0 1 1 0 3.03 1.515 1.515 0 0 1 0-3.03M34.325 23.996a1.515 1.515 0 1 1 0 3.03 1.515 1.515 0 0 1 0-3.03M24.398 6.697a1.515 1.515 0 1 1 0 3.03 1.515 1.515 0 0 1 0-3.03M24.398 35.255a1.515 1.515 0 1 1 0 3.03 1.515 1.515 0 0 1 0-3.03M14.89 6.697a1.515 1.515 0 1 1 0 3.03 1.515 1.515 0 0 1 0-3.03M14.89 35.255a1.515 1.515 0 1 1 0 3.03 1.515 1.515 0 0 1 0-3.03M19.635 42.719a1.131 1.131 0 1 1 0 2.263 1.131 1.131 0 0 1 0-2.263M24.051 40.292a1.131 1.131 0 1 1 0 2.263 1.131 1.131 0 0 1 0-2.263M15.255 40.292a1.131 1.131 0 1 1 0 2.263 1.131 1.131 0 0 1 0-2.263M15.255 2.445a1.131 1.131 0 1 1 0 2.263 1.131 1.131 0 0 1 0-2.263M24.033 2.427a1.131 1.131 0 1 1 0 2.263 1.131 1.131 0 0 1 0-2.263M19.653 0a1.131 1.131 0 1 1 0 2.263 1.131 1.131 0 0 1 0-2.263M33.796 34.599a1.131 1.131 0 1 1 0 2.262 1.131 1.131 0 0 1 0-2.262M5.474 34.599a1.131 1.131 0 1 1 0 2.262 1.131 1.131 0 0 1 0-2.262M5.474 8.139a1.131 1.131 0 1 1 0 2.263 1.131 1.131 0 0 1 0-2.263M33.796 8.12a1.131 1.131 0 1 1 0 2.263 1.131 1.131 0 0 1 0-2.263M38.084 32.007a1.131 1.131 0 1 1 0 2.263 1.131 1.131 0 0 1 0-2.263M38.12 27.026a1.131 1.131 0 1 1 0 2.262 1.131 1.131 0 0 1 0-2.262M38.139 15.73a1.131 1.131 0 1 1 0 2.263 1.131 1.131 0 0 1 0-2.263M38.084 10.73a1.131 1.131 0 1 1 0 2.263 1.131 1.131 0 0 1 0-2.263M1.223 32.007a1.131 1.131 0 1 1 0 2.263 1.131 1.131 0 0 1 0-2.263M1.131 26.99a1.131 1.131 0 1 1 0 2.262 1.131 1.131 0 0 1 0-2.263M1.131 15.73a1.131 1.131 0 1 1 0 2.263 1.131 1.131 0 0 1 0-2.263M1.223 10.73a1.131 1.131 0 1 1 0 2.263 1.131 1.131 0 0 1 0-2.263M19.635 25.785a2.28 2.28 0 1 1 0 4.562 2.28 2.28 0 0 1 0-4.562M24.47 22.993a2.28 2.28 0 1 1 .001 4.562 2.28 2.28 0 0 1 0-4.562M24.47 17.409a2.28 2.28 0 1 1 .001 4.562 2.28 2.28 0 0 1 0-4.562M14.8 22.993a2.28 2.28 0 1 1 0 4.562 2.28 2.28 0 0 1 0-4.562M14.8 17.409a2.28 2.28 0 1 1 0 4.562 2.28 2.28 0 0 1 0-4.562M49.8 25.2v-9.123h2.08v8.996c0 .51.146.858.42 1.022.2.128.455.2.747.182.092 0 .183 0 .292-.018h.201v1.642c-.2.037-.365.073-.51.092-.147.018-.348.018-.566.018-.858 0-1.497-.219-1.971-.675-.475-.456-.694-1.15-.694-2.135M56.679 25.365c0 .42.146.73.42.912.273.201.638.292 1.058.292.182 0 .383-.036.584-.09.219-.074.401-.165.584-.311.182-.146.31-.31.438-.493.128-.182.164-.42.164-.657v-.62a3.808 3.808 0 0 0-.748-.164 4.29 4.29 0 0 0-.821-.073c-.201 0-.402.018-.603.073-.2.054-.383.127-.529.219a.968.968 0 0 0-.383.383c-.11.128-.164.31-.164.529m-2.08.182v-.127c0-.53.109-.967.328-1.314.219-.347.511-.639.858-.858a3.52 3.52 0 0 1 1.204-.456 6.763 6.763 0 0 1 1.332-.146c.237 0 .493.018.785.055.274.036.547.073.821.146v-.31c0-.256-.018-.475-.036-.694a1.394 1.394 0 0 0-.201-.566 1.053 1.053 0 0 0-.456-.383c-.201-.091-.475-.128-.803-.128-.347 0-.676.092-.986.256-.31.164-.474.493-.492.949h-2.044v-.2c.036-.439.146-.804.365-1.132.2-.329.456-.584.784-.803.31-.22.676-.365 1.077-.475.401-.11.821-.146 1.26-.146.583 0 1.112.073 1.605.238.493.146.912.42 1.24.766.238.237.42.566.548.985.128.42.201.895.201 1.442v5.328h-1.588l-.255-.93h-.037c-.273.383-.62.693-1.058.894-.438.2-.912.31-1.423.31-.402 0-.803-.073-1.168-.2a2.961 2.961 0 0 1-.967-.548 2.759 2.759 0 0 1-.657-.858 2.673 2.673 0 0 1-.237-1.095M64.197 27.956v-8.485h1.588l.328 1.04h.037c.328-.456.711-.803 1.131-.985.438-.201.894-.292 1.405-.292.456 0 .876.073 1.26.237.382.146.71.365.985.638.273.274.492.584.638.95.146.364.22.766.22 1.222v5.712h-2.026v-5.11c0-.657-.164-1.131-.475-1.441-.31-.292-.711-.457-1.222-.457-.548 0-.986.165-1.314.475-.329.31-.475.785-.475 1.441v5.092h-2.08v-.037zM76.022 22.117c0 .456.146.821.438 1.076.292.256.693.384 1.186.384s.876-.128 1.168-.384c.292-.255.438-.62.438-1.076 0-.456-.146-.803-.438-1.059-.292-.255-.675-.365-1.186-.365-.511 0-.913.128-1.186.384-.274.237-.42.602-.42 1.04zm-.53 6.57c0 .364.147.62.457.784.31.164.876.237 1.697.237.712 0 1.26-.11 1.642-.31.384-.2.584-.475.584-.767 0-.292-.11-.492-.328-.602-.22-.11-.53-.164-.913-.164h-2.408c-.201.073-.384.2-.511.365-.146.146-.22.31-.22.456zm-2.043.182c0-.11.018-.238.073-.402a2.18 2.18 0 0 1 .2-.474c.092-.146.201-.31.33-.438a1.64 1.64 0 0 1 .474-.31 2.792 2.792 0 0 1-.457-.548 1.498 1.498 0 0 1-.2-.766c0-.292.073-.584.237-.858.146-.292.42-.547.785-.785a2.332 2.332 0 0 1-.676-.84c-.164-.328-.237-.71-.237-1.149v-.182c0-.475.091-.894.292-1.241.2-.365.456-.657.785-.894a3.64 3.64 0 0 1 1.168-.548 5.069 5.069 0 0 1 1.423-.182c.365 0 .712.036 1.058.11l1.332-1.552h1.88v.237L80.237 20c.329.237.584.53.767.876.182.347.273.748.273 1.223v.2c0 .475-.09.894-.292 1.241-.2.347-.456.639-.803.876-.346.237-.73.42-1.186.53-.456.127-.93.182-1.441.182a4.697 4.697 0 0 1-1.497-.22.712.712 0 0 0-.292.33.974.974 0 0 0-.09.364c0 .237.072.42.236.53.165.109.384.164.676.164h2.299c.383 0 .748.036 1.113.127.365.092.693.22.967.402.274.182.511.401.675.693.165.274.256.602.256.986v.127c0 .493-.146.913-.42 1.26-.274.346-.62.62-1.058.82-.438.201-.894.366-1.424.457a8.477 8.477 0 0 1-1.496.146c-.547 0-1.077-.037-1.57-.11-.492-.073-.93-.2-1.313-.383-.383-.182-.675-.42-.876-.712-.2-.291-.31-.638-.31-1.076v-.164h.018zM90.237 25.365c0 .42.146.73.42.912.274.201.639.292 1.058.292.183 0 .384-.036.584-.09.22-.074.402-.165.584-.311.183-.146.31-.31.438-.493.128-.182.164-.42.164-.657v-.62a3.808 3.808 0 0 0-.748-.164 4.29 4.29 0 0 0-.82-.073c-.202 0-.402.018-.603.073-.2.054-.383.127-.53.219a.968.968 0 0 0-.383.383c-.127.128-.164.31-.164.529m-2.08.182v-.127c0-.53.11-.967.328-1.314.22-.347.511-.639.858-.858a3.52 3.52 0 0 1 1.204-.456 6.763 6.763 0 0 1 1.333-.146c.237 0 .492.018.784.055.274.036.548.073.821.146v-.31c0-.256-.018-.475-.036-.694a1.394 1.394 0 0 0-.2-.566 1.053 1.053 0 0 0-.457-.383c-.2-.091-.474-.128-.803-.128-.347 0-.675.092-.985.256-.31.164-.475.493-.493.949h-2.044v-.2c.037-.439.146-.804.365-1.132.2-.329.456-.584.785-.803.31-.22.675-.365 1.076-.475.402-.11.822-.146 1.26-.146.583 0 1.113.073 1.605.238.493.146.913.42 1.241.766.237.237.42.566.548.985.127.42.2.895.2 1.442v5.328H93.96l-.256-.93h-.036c-.274.383-.62.693-1.059.894-.437.2-.912.31-1.423.31-.401 0-.803-.073-1.168-.2a2.961 2.961 0 0 1-.967-.548 2.759 2.759 0 0 1-.657-.858 2.673 2.673 0 0 1-.237-1.095M97.664 27.956h2.08v-8.485h-2.08zM98.686 15.584a1.314 1.314 0 1 1 0 2.628 1.314 1.314 0 0 1 0-2.628M84.89 25.365a1.314 1.314 0 1 1 0 2.628 1.314 1.314 0 0 1 0-2.628"/></g></svg>