<?xml version="1.0" encoding="UTF-8"?>
<svg width="130px" height="26px" viewBox="0 0 130 26" version="1.1" xmlns="http://www.w3.org/2000/svg" xmlns:xlink="http://www.w3.org/1999/xlink">
    <!-- Generator: Sketch 41.2 (35397) - http://www.bohemiancoding.com/sketch -->
    <title>Lang-ai</title>
    <desc>Created with Sketch.</desc>
    <defs></defs>
    <g id="Page-1" stroke="none" stroke-width="1" fill="none" fill-rule="evenodd">
        <g id="Lang-dash-Copy-4" transform="translate(-25.000000, -35.000000)">
            <g id="Lang-ai" transform="translate(25.000000, 35.000000)">
                <path d="M0.665964912,19.3859649 L3.40052632,19.3859649 L3.40052632,1.62385965 L0.665964912,1.62385965 L0.665964912,19.3859649 L0.665964912,19.3859649 Z M16.7152632,10.705614 C16.7152632,7.84561404 15.4608772,6.56614035 12.4001754,6.56614035 C10.0921053,6.56614035 7.35754386,7.21842105 7.35754386,7.21842105 L7.45789474,9.15017544 C7.45789474,9.15017544 10.4935088,8.89929825 12.174386,8.89929825 C13.4036842,8.89929825 14.0057895,9.32578947 14.0057895,10.705614 L14.0057895,11.6087719 L10.7694737,11.8847368 C8.08508772,12.1105263 6.63,13.0136842 6.63,15.6729825 C6.63,18.2821053 7.88438596,19.6619298 10.3680702,19.6619298 C12.4001754,19.6619298 14.407193,18.7336842 14.407193,18.7336842 C15.3354386,19.4612281 16.2135088,19.6619298 17.7438596,19.6619298 L17.8191228,17.5796491 C17.0915789,17.4792982 16.7654386,17.1782456 16.7152632,16.425614 L16.7152632,10.705614 L16.7152632,10.705614 Z M14.0057895,16.877193 C14.0057895,16.877193 12.3249123,17.4291228 10.8949123,17.4291228 C9.84122807,17.4291228 9.3645614,16.7266667 9.3645614,15.5977193 C9.3645614,14.4687719 9.94157895,13.9168421 11.095614,13.8164912 L14.0057895,13.5405263 L14.0057895,16.877193 Z M23.4570175,19.3859649 L23.4570175,9.65192982 C23.4570175,9.65192982 24.8368421,8.99964912 26.2919298,8.99964912 C28.1985965,8.99964912 28.5247368,10.2289474 28.5247368,12.7377193 L28.5247368,19.3859649 L31.2342105,19.3859649 L31.2342105,12.6624561 C31.2342105,8.54807018 30.3812281,6.56614035 26.8940351,6.56614035 C25.2633333,6.56614035 23.4319298,7.61982456 23.4319298,7.61982456 L23.4319298,6.84210526 L20.7224561,6.84210526 L20.7224561,19.3859649 L23.4570175,19.3859649 L23.4570175,19.3859649 Z M40.1585965,25.2063158 C43.5203509,25.2063158 45.9538596,24.0522807 45.9538596,21.0919298 C45.9538596,18.2068421 44.7245614,17.3789474 40.7607018,17.3538596 C38.327193,17.3287719 38.0512281,17.1782456 38.0512281,16.3754386 C38.0512281,16.0492982 38.4024561,15.1963158 38.4024561,15.1963158 C38.6282456,15.2464912 39.2554386,15.2966667 39.5063158,15.2966667 C42.8429825,15.2966667 44.6242105,14.3684211 44.6242105,10.9564912 C44.6242105,9.97807018 44.2729825,9.32578947 43.9468421,8.89929825 L46.0291228,9.02473684 L46.0291228,6.81701754 L42.1405263,6.91736842 C42.1405263,6.91736842 40.735614,6.59122807 39.5815789,6.59122807 C36.6964912,6.59122807 34.5640351,7.7954386 34.5640351,10.9564912 C34.5640351,13.214386 35.4421053,14.1677193 36.3703509,14.7196491 C36.3703509,14.7196491 35.467193,16.1496491 35.467193,16.7266667 C35.467193,17.504386 35.7682456,18.2068421 36.2950877,18.5580702 C35.015614,19.5364912 34.3884211,20.3142105 34.3884211,21.5936842 C34.3884211,24.4536842 36.3703509,25.2063158 40.1585965,25.2063158 L40.1585965,25.2063158 L40.1585965,25.2063158 Z M40.5349123,19.7121053 C42.5670175,19.737193 43.2192982,19.8877193 43.2192982,21.2424561 C43.2192982,22.4717544 42.2157895,22.9735088 40.1836842,22.9735088 C37.9007018,22.9735088 37.072807,22.4968421 37.072807,21.342807 C37.072807,20.5650877 37.3738596,20.1385965 38.0763158,19.5615789 C38.0763158,19.5615789 39.757193,19.7121053 40.5349123,19.7121053 L40.5349123,19.7121053 L40.5349123,19.7121053 Z M39.5815789,13.1892982 C37.9759649,13.1892982 37.2735088,12.4868421 37.2735088,10.9564912 C37.2735088,9.45122807 37.9759649,8.72368421 39.5815789,8.72368421 C41.2624561,8.72368421 41.9147368,9.45122807 41.9147368,10.9564912 C41.9147368,12.4868421 41.2624561,13.1892982 39.5815789,13.1892982 L39.5815789,13.1892982 L39.5815789,13.1892982 Z M48.6063158,19.3859649 L51.5415789,19.3859649 L51.5415789,15.7733333 L48.6063158,15.7733333 L48.6063158,19.3859649 L48.6063158,19.3859649 Z M64.5803509,10.705614 C64.5803509,7.84561404 63.3259649,6.56614035 60.2652632,6.56614035 C57.957193,6.56614035 55.2226316,7.21842105 55.2226316,7.21842105 L55.3229825,9.15017544 C55.3229825,9.15017544 58.3585965,8.89929825 60.0394737,8.89929825 C61.2687719,8.89929825 61.8708772,9.32578947 61.8708772,10.705614 L61.8708772,11.6087719 L58.6345614,11.8847368 C55.9501754,12.1105263 54.4950877,13.0136842 54.4950877,15.6729825 C54.4950877,18.2821053 55.7494737,19.6619298 58.2331579,19.6619298 C60.2652632,19.6619298 62.2722807,18.7336842 62.2722807,18.7336842 C63.2005263,19.4612281 64.0785965,19.6619298 65.6089474,19.6619298 L65.6842105,17.5796491 C64.9566667,17.4792982 64.6305263,17.1782456 64.5803509,16.425614 L64.5803509,10.705614 L64.5803509,10.705614 Z M61.8708772,13.5405263 L61.8708772,16.877193 C61.8708772,16.877193 60.19,17.4291228 58.76,17.4291228 C57.7063158,17.4291228 57.2296491,16.7266667 57.2296491,15.5977193 C57.2296491,14.4687719 57.8066667,13.9168421 58.9607018,13.8164912 L61.8708772,13.5405263 L61.8708772,13.5405263 Z M68.5875439,19.3859649 L71.3221053,19.3859649 L71.3221053,6.84210526 L68.5875439,6.84210526 L68.5875439,19.3859649 L68.5875439,19.3859649 Z M68.5875439,4.70964912 L71.3221053,4.70964912 L71.3221053,1.8245614 L68.5875439,1.8245614 L68.5875439,4.70964912 L68.5875439,4.70964912 Z" id="lang.ai" fill="#FFFFFF"></path>
                <rect id="path-1" fill="#FBA92B" x="84.3859649" y="0" width="45.6140351" height="22.8070175" rx="2"></rect>
                <path d="M92.9899123,7.01315789 L92.9899123,14.8245614 L96.0460526,14.8245614 C97.5627193,14.8245614 98.5320175,14.2087719 98.5320175,12.6122807 C98.5320175,11.5403509 98.0872807,11.0614035 97.4144737,10.7991228 C98.0416667,10.4570175 98.3381579,9.98947368 98.3381579,9.04298246 C98.3381579,7.59473684 97.5057018,7.01315789 95.9548246,7.01315789 L92.9899123,7.01315789 L92.9899123,7.01315789 Z M95.9548246,11.4149123 C96.570614,11.4149123 97.2320175,11.654386 97.2320175,12.5438596 C97.2320175,13.4789474 96.7644737,13.7298246 95.9776316,13.7298246 L94.2557018,13.7298246 L94.2557018,11.4149123 L95.9548246,11.4149123 L95.9548246,11.4149123 Z M95.8864035,8.10789474 C96.6618421,8.10789474 97.0495614,8.43859649 97.0495614,9.19122807 C97.0495614,9.95526316 96.7074561,10.3429825 95.9320175,10.3429825 L94.2557018,10.3429825 L94.2557018,8.10789474 L95.8864035,8.10789474 L95.8864035,8.10789474 Z M101.109211,14.8245614 L106.035526,14.8245614 L106.035526,13.7070175 L102.375,13.7070175 L102.375,11.4263158 L105.351316,11.4263158 L105.351316,10.3315789 L102.375,10.3315789 L102.375,8.11929825 L106.035526,8.11929825 L106.035526,7.01315789 L101.109211,7.01315789 L101.109211,14.8245614 L101.109211,14.8245614 Z M107.80307,8.14210526 L110.026754,8.14210526 L110.026754,14.8245614 L111.303947,14.8245614 L111.303947,8.14210526 L113.504825,8.14210526 L113.504825,7.01315789 L107.80307,7.01315789 L107.80307,8.14210526 L107.80307,8.14210526 Z M114.553947,14.8245614 L115.819737,14.8245614 L116.241667,13.1482456 L119.240789,13.1482456 L119.662719,14.8245614 L120.939912,14.8245614 L119.001316,7.01315789 L116.48114,7.01315789 L114.553947,14.8245614 L114.553947,14.8245614 Z M117.461842,8.07368421 L118.032018,8.07368421 L118.989912,12.0307018 L116.492544,12.0307018 L117.461842,8.07368421 L117.461842,8.07368421 Z" id="path-3" fill="#FFFFFF"></path>
            </g>
        </g>
    </g>
</svg>